<svg id="bigCritterMain" style="overflow: hidden; position: relative;" width="620" height="330" version="1.1" xmlns="http://www.w3.org/2000/svg"><desc style="-webkit-tap-highlight-color: rgba(0, 0, 0, 0);">Created with Raphaël 2.1.0</desc><defs style="-webkit-tap-highlight-color: rgba(0, 0, 0, 0);"></defs><image style="-webkit-tap-highlight-color: rgba(0, 0, 0, 0);" x="0" y="0" width="620" height="318" preserveAspectRatio="none" xlink:href="images/iphone4.png"></image><path style="-webkit-tap-highlight-color: rgba(0, 0, 0, 0); opacity: 0;" fill="#54b2a2" stroke="none" d="M600,256.013C600,280.207,580.513,300,556.693,300H43.306C19.488,300,0,280.205,0,256.013V43.986C0,19.795,19.488,0,43.306,0H556.691C580.5110000000001,0,599.998,19.795,599.998,43.986V256.013H600ZM36.995,208.91C24.148999999999997,208.91,12.387999999999998,247.015,12.387999999999998,260.064C12.387999999999998,273.10900000000004,22.802,283.687,35.646,283.687C48.493,283.687,58.907,273.11,58.907,260.064C58.908,247.016,49.842,208.91,36.995,208.91Z" opacity="0" id="bigSkin0" transform="matrix(1,0,0,1,14,10)"></path><path style="-webkit-tap-highlight-color: rgba(0, 0, 0, 0); opacity: 1;" fill="#899d4e" stroke="none" d="M600,256.013C600,280.207,580.513,300,556.693,300H43.306C19.488,300,0,280.205,0,256.013V43.986C0,19.795,19.488,0,43.306,0H556.691C580.5110000000001,0,599.998,19.795,599.998,43.986V256.013H600ZM36.995,208.91C24.148999999999997,208.91,12.387999999999998,247.015,12.387999999999998,260.064C12.387999999999998,273.10900000000004,22.802,283.687,35.646,283.687C48.493,283.687,58.907,273.11,58.907,260.064C58.908,247.016,49.842,208.91,36.995,208.91Z" opacity="1" id="bigSkin1" transform="matrix(1,0,0,1,14,10)"></path><path style="-webkit-tap-highlight-color: rgba(0, 0, 0, 0); opacity: 0;" fill="#b1cdc5" stroke="none" d="M600,256.013C600,280.207,580.513,300,556.693,300H43.306C19.488,300,0,280.205,0,256.013V43.986C0,19.795,19.488,0,43.306,0H556.691C580.5110000000001,0,599.998,19.795,599.998,43.986V256.013H600ZM36.995,208.91C24.148999999999997,208.91,12.387999999999998,247.015,12.387999999999998,260.064C12.387999999999998,273.10900000000004,22.802,283.687,35.646,283.687C48.493,283.687,58.907,273.11,58.907,260.064C58.908,247.016,49.842,208.91,36.995,208.91Z" opacity="0" id="bigSkin2" transform="matrix(1,0,0,1,14,10)"></path><path style="-webkit-tap-highlight-color: rgba(0, 0, 0, 0); opacity: 0;" fill="#c44f7f" stroke="none" d="M600,256.013C600,280.207,580.513,300,556.693,300H43.306C19.488,300,0,280.205,0,256.013V43.986C0,19.795,19.488,0,43.306,0H556.691C580.5110000000001,0,599.998,19.795,599.998,43.986V256.013H600ZM36.995,208.91C24.148999999999997,208.91,12.387999999999998,247.015,12.387999999999998,260.064C12.387999999999998,273.10900000000004,22.802,283.687,35.646,283.687C48.493,283.687,58.907,273.11,58.907,260.064C58.908,247.016,49.842,208.91,36.995,208.91Z" opacity="0" id="bigSkin3" transform="matrix(1,0,0,1,14,10)"></path><path style="-webkit-tap-highlight-color: rgba(0, 0, 0, 0); opacity: 0;" fill="#f0c02b" stroke="none" d="M600,256.013C600,280.207,580.513,300,556.693,300H43.306C19.488,300,0,280.205,0,256.013V43.986C0,19.795,19.488,0,43.306,0H556.691C580.5110000000001,0,599.998,19.795,599.998,43.986V256.013H600ZM36.995,208.91C24.148999999999997,208.91,12.387999999999998,247.015,12.387999999999998,260.064C12.387999999999998,273.10900000000004,22.802,283.687,35.646,283.687C48.493,283.687,58.907,273.11,58.907,260.064C58.908,247.016,49.842,208.91,36.995,208.91Z" opacity="0" id="bigSkin4" transform="matrix(1,0,0,1,14,10)"></path><path style="-webkit-tap-highlight-color: rgba(0, 0, 0, 0); stroke-linejoin: round; stroke-linecap: round; opacity: 0.533;" fill="none" stroke="#555555" d="M220,140M220,80C266.18802153517004,80,295.05553499465134,130,271.9615242270663,170C261.24355652982143,188.5640646055102,241.43593539448983,200,220,200C173.81197846482996,200,144.94446500534866,150.00000000000003,168.03847577293368,110.00000000000001C178.7564434701786,91.43593539448983,198.56406460551017,80,220,80C220,80,220,80,220,80" stroke-linejoin="round" stroke-linecap="round" stroke-width="2" opacity="0.533" transform="matrix(1,0,0,1,0,1)"></path><circle style="-webkit-tap-highlight-color: rgba(0, 0, 0, 0); opacity: 1;" cx="220" cy="140" r="60" fill="#fdfdf9" stroke="none" stroke-width="0" opacity="1"></circle><path style="-webkit-tap-highlight-color: rgba(0, 0, 0, 0); stroke-linejoin: round; stroke-linecap: round; opacity: 0.533;" fill="none" stroke="#555555" d="M420,140M420,80C466.18802153517004,80,495.05553499465134,130,471.9615242270663,170C461.24355652982143,188.5640646055102,441.43593539448983,200,420,200C373.81197846482996,200,344.94446500534866,150.00000000000003,368.0384757729337,110.00000000000001C378.75644347017857,91.43593539448983,398.56406460551017,80,420,80C420,80,420,80,420,80" stroke-linejoin="round" stroke-linecap="round" stroke-width="2" opacity="0.533" transform="matrix(1,0,0,1,0,1)"></path><circle style="-webkit-tap-highlight-color: rgba(0, 0, 0, 0); opacity: 1;" cx="420" cy="140" r="60" fill="#fdfdf9" stroke="none" stroke-width="0" opacity="1"></circle><path style="-webkit-tap-highlight-color: rgba(0, 0, 0, 0); stroke-linejoin: round; stroke-linecap: round; opacity: 0.533;" fill="none" stroke="#555555" d="M200,160M200,150C207.698003589195,150,212.5092558324419,158.33333333333334,208.6602540378444,165C206.8739260883036,168.09401076758502,203.57265589908164,170,200,170C192.301996410805,170,187.4907441675581,161.66666666666666,191.3397459621556,155C193.1260739116964,151.90598923241498,196.42734410091836,150,200,150C200,150,200,150,200,150" stroke-linejoin="round" stroke-linecap="round" stroke-width="2" opacity="0.533" transform="matrix(1,0,0,1,0,1)"></path><circle style="-webkit-tap-highlight-color: rgba(0, 0, 0, 0); opacity: 1;" cx="200" cy="160" r="10" fill="#8e2f2d" stroke="none" stroke-width="0" opacity="1"></circle><path style="-webkit-tap-highlight-color: rgba(0, 0, 0, 0); stroke-linejoin: round; stroke-linecap: round; opacity: 0.533;" fill="none" stroke="#555555" d="M440,160M440,150C447.698003589195,150,452.50925583244185,158.33333333333334,448.66025403784437,165C446.87392608830356,168.09401076758502,443.5726558990816,170,440,170C432.301996410805,170,427.49074416755815,161.66666666666666,431.33974596215563,155C433.12607391169644,151.90598923241498,436.4273441009184,150,440,150C440,150,440,150,440,150" stroke-linejoin="round" stroke-linecap="round" stroke-width="2" opacity="0.533" transform="matrix(1,0,0,1,0,1)"></path><circle style="-webkit-tap-highlight-color: rgba(0, 0, 0, 0); opacity: 1;" cx="440" cy="160" r="10" fill="#8e2f2d" stroke="none" stroke-width="0" opacity="1"></circle><path style="-webkit-tap-highlight-color: rgba(0, 0, 0, 0); stroke-linejoin: round; stroke-linecap: round; opacity: 0.533;" fill="none" stroke="#555555" d="M168,224C168,224,477,224,477,224C481.4182779986464,224,485,227.58172200135365,485,232C485,232,485,231,485,231C485,235.41827799864635,481.4182779986464,239,477,239C477,239,168,239,168,239C163.58172200135365,239,160,235.41827799864635,160,231C160,231,160,232,160,232C160,227.58172200135365,163.58172200135365,224,168,224C168,224,168,224,168,224" stroke-linejoin="round" stroke-linecap="round" stroke-width="2" opacity="0.533" transform="matrix(1,0,0,1,0,1)"></path><rect style="-webkit-tap-highlight-color: rgba(0, 0, 0, 0);" x="160" y="224" width="325" height="15" r="8" rx="8" ry="8" fill="#8e2f2d" stroke="none" stroke-width="0"></rect><path style="-webkit-tap-highlight-color: rgba(0, 0, 0, 0); stroke-linejoin: round; stroke-linecap: round; opacity: 0.533;" fill="none" stroke="#555555" d="M210,240C210,240,230,240,230,240C230,240,210,270,210,270C210,270,190,240,190,240C190,240,210,240,210,240" stroke-linejoin="round" stroke-linecap="round" stroke-width="2" opacity="0.533" transform="matrix(1,0,0,1,0,1)"></path><path style="-webkit-tap-highlight-color: rgba(0, 0, 0, 0); opacity: 1;" fill="#fdfdf9" stroke="none" d="M210,240L230,240L210,270L190,240Z" opacity="1" stroke-width="0"></path><path style="-webkit-tap-highlight-color: rgba(0, 0, 0, 0); stroke-linejoin: round; stroke-linecap: round; opacity: 0.533;" fill="none" stroke="#555555" d="M320,240C320,240,340,240,340,240C340,240,320,270,320,270C320,270,300,240,300,240C300,240,320,240,320,240" stroke-linejoin="round" stroke-linecap="round" stroke-width="2" opacity="0.533" transform="matrix(1,0,0,1,0,1)"></path><path style="-webkit-tap-highlight-color: rgba(0, 0, 0, 0); opacity: 1;" fill="#fdfdf9" stroke="none" d="M320,240L340,240L320,270L300,240Z" opacity="1" stroke-width="0"></path><path style="-webkit-tap-highlight-color: rgba(0, 0, 0, 0); stroke-linejoin: round; stroke-linecap: round; opacity: 0.533;" fill="none" stroke="#555555" d="M430,240C430,240,450,240,450,240C450,240,430,270,430,270C430,270,410,240,410,240C410,240,430,240,430,240" stroke-linejoin="round" stroke-linecap="round" stroke-width="2" opacity="0.533" transform="matrix(1,0,0,1,0,1)"></path><path style="-webkit-tap-highlight-color: rgba(0, 0, 0, 0); opacity: 1;" fill="#fdfdf9" stroke="none" d="M430,240L450,240L430,270L410,240Z" opacity="1" stroke-width="0"></path></svg>