<svg height="60" version="1.1" width="300"
xmlns="http://www.w3.org/2000/svg"
style="overflow: hidden; position: relative;">
  <desc>Created with Rapha&#195;&#171;l 2.1.0</desc>
  <defs>
    <pattern id="whiteFill" x="0" y="0"
    patternUnits="userSpaceOnUse" height="10" width="10">
      <image x="0" y="0" href="white.jpg"
      width="10" height="10"></image>
    </pattern>
  </defs>
  <path style="opacity: 0.5;" fill="#555555" stroke="none"
  d="M28,3C14.194,3,3,14.194,3,28S14.194,53,28,53S53,41.806,53,28S41.806,3,28,3ZM42.765,42.455C38.904,46.315,33.77,48.442,28.310000000000002,48.442L28.310000000000002,48.442C22.85,48.442,17.716,46.315,13.856000000000002,42.454C5.885000000000002,34.484,5.885000000000002,21.516000000000002,13.855000000000002,13.545000000000002C21.827,5.575000000000002,34.794000000000004,5.575000000000002,42.764,13.545000000000002C43.67100000000001,14.452000000000002,43.67100000000001,15.920000000000002,42.764,16.825000000000003C41.857,17.732000000000003,40.389,17.732000000000003,39.484,16.825000000000003C33.323,10.665000000000003,23.298000000000002,10.665000000000003,17.135,16.825000000000003C10.975000000000001,22.988000000000003,10.974000000000002,33.013000000000005,17.135,39.17400000000001C20.121000000000002,42.159000000000006,24.090000000000003,43.803000000000004,28.310000000000002,43.803000000000004C32.53,43.803000000000004,36.499,42.160000000000004,39.484,39.175000000000004C40.391000000000005,38.268,41.859,38.268,42.765,39.175000000000004C43.67,40.08,43.67,41.548,42.765,42.455ZM38.737,28C38.737,30.637999999999998,36.591,32.784,33.953,32.784C31.316000000000003,32.784,29.17,30.637999999999998,29.17,28S31.316000000000003,23.217,33.953,23.217C36.591,23.217,38.737,25.362,38.737,28ZM26.937,28C26.937,30.637999999999998,24.791,32.784,22.153000000000002,32.784C19.515,32.784,17.369000000000003,30.637999999999998,17.369000000000003,28S19.515000000000004,23.217,22.153000000000002,23.217C24.791,23.217,26.937,25.362,26.937,28Z"
  opacity="0.5" transform="matrix(1,0,0,1,0,1)"></path>
  <path style="" fill="#fdfdf9"
  stroke="none"
  d="M28,3C14.194,3,3,14.194,3,28S14.194,53,28,53S53,41.806,53,28S41.806,3,28,3ZM42.765,42.455C38.904,46.315,33.77,48.442,28.310000000000002,48.442L28.310000000000002,48.442C22.85,48.442,17.716,46.315,13.856000000000002,42.454C5.885000000000002,34.484,5.885000000000002,21.516000000000002,13.855000000000002,13.545000000000002C21.827,5.575000000000002,34.794000000000004,5.575000000000002,42.764,13.545000000000002C43.67100000000001,14.452000000000002,43.67100000000001,15.920000000000002,42.764,16.825000000000003C41.857,17.732000000000003,40.389,17.732000000000003,39.484,16.825000000000003C33.323,10.665000000000003,23.298000000000002,10.665000000000003,17.135,16.825000000000003C10.975000000000001,22.988000000000003,10.974000000000002,33.013000000000005,17.135,39.17400000000001C20.121000000000002,42.159000000000006,24.090000000000003,43.803000000000004,28.310000000000002,43.803000000000004C32.53,43.803000000000004,36.499,42.160000000000004,39.484,39.175000000000004C40.391000000000005,38.268,41.859,38.268,42.765,39.175000000000004C43.67,40.08,43.67,41.548,42.765,42.455ZM38.737,28C38.737,30.637999999999998,36.591,32.784,33.953,32.784C31.316000000000003,32.784,29.17,30.637999999999998,29.17,28S31.316000000000003,23.217,33.953,23.217C36.591,23.217,38.737,25.362,38.737,28ZM26.937,28C26.937,30.637999999999998,24.791,32.784,22.153000000000002,32.784C19.515,32.784,17.369000000000003,30.637999999999998,17.369000000000003,28S19.515000000000004,23.217,22.153000000000002,23.217C24.791,23.217,26.937,25.362,26.937,28Z">
  </path>
  <circle cx="22" cy="28.5" r="3" fill="#555555" stroke="none"
  style="opacity: 0.5;" opacity="0.5"></circle>
  <circle cx="22" cy="28" r="3"
  fill="#fdfdf0" stroke="none"
  style=""></circle>
  <circle cx="34" cy="28.5" r="3" fill="#555555" stroke="none"
  style="opacity: 0.5;" opacity="0.5"></circle>
  <circle cx="34" cy="28" r="3"
  fill="#fdfdf9" stroke="none"
  style=""></circle>
  <text style="text-anchor: middle; font-style: normal; font-variant: normal; font-weight: bold; font-size: 45px; line-height: normal; font-family: 'Helvetica'; opacity: 0.5;"
  x="176" y="29" text-anchor="middle" font="10px &quot;Arial&quot;"
  stroke="none" fill="#555555" font-family="Helvetica"
  font-weight="bold" font-size="45px" opacity="0.5">
    <tspan dy="17">CritterKins</tspan>
  </text>
  <text style="text-anchor: middle; font-style: normal; font-variant: normal; font-weight: bold; font-size: 45px; line-height: normal; font-family: 'Helvetica';"
  x="176" y="28" text-anchor="middle" font="10px &quot;Arial&quot;"
  stroke="none" fill="#fdfdf9"
  font-family="Helvetica" font-weight="bold" font-size="45px">
    <tspan dy="17">CritterKins</tspan>
  </text>
</svg>
