<svg id='textBubble' style="overflow: hidden; position: relative;" version="1.1" viewBox="0 0 400 100" height='20%' width='100%' xmlns="http://www.w3.org/2000/svg"><desc style="-webkit-tap-highlight-color: rgba(0, 0, 0, 0);">Created with Raphaël 2.1.0</desc><defs style="-webkit-tap-highlight-color: rgba(0, 0, 0, 0);"></defs><path style="-webkit-tap-highlight-color: rgba(0, 0, 0, 0); stroke-linejoin: round; stroke-linecap: round; opacity: 0.267;" fill="none" stroke="#555555" d="M259,80C259,85.523,254.875,90,249.787,90C249.787,90,37.888000000000005,90,37.888000000000005,90C32.8,90,28.675000000000004,85.523,28.675000000000004,80C28.675000000000004,80,28.675000000000004,61.92,28.675000000000004,61.92C28.675000000000004,61.92,9,48.293,9,48.293C9,48.293,28.675,34.751999999999995,28.675,34.751999999999995C28.675,34.751999999999995,28.675,20,28.675,20C28.675,14.477,32.8,10,37.888,10C37.888,10,249.787,10,249.787,10C254.875,10,259,14.477,259,20C259,20,259,80,259,80C259,80,259,80,259,80" stroke-linejoin="round" stroke-linecap="round" stroke-width="2" opacity="0.267" transform="matrix(1,0,0,1,0,1)"></path><path style="-webkit-tap-highlight-color: rgba(0, 0, 0, 0);" fill="#f9e77a" stroke="none" d="M250,70C250,75.523,245.875,80,240.787,80H28.888C23.8,80,19.675000000000004,75.523,19.675000000000004,70V51.92L0,38.293L19.675,24.752V10C19.675,4.477,23.8,0,28.887999999999998,0H240.787C245.875,0,250,4.477,250,10V70Z" transform="matrix(1,0,0,1,9,10)"></path><text style="-webkit-tap-highlight-color: rgba(0, 0, 0, 0); text-anchor: start; font-style: normal; font-variant: normal; font-weight: normal; font-size: 24px; line-height: normal; font-family: Helvetica; opacity: 0.5;" x="45" y="51" text-anchor="start" font="10px &quot;Arial&quot;" stroke="none" fill="#555555" font-family="Helvetica" opacity="0.5" font-size="24px"><tspan style="-webkit-tap-highlight-color: rgba(0, 0, 0, 0);" dy="8.4765625">You complete me.</tspan></text><text style="-webkit-tap-highlight-color: rgba(0, 0, 0, 0); text-anchor: start; font-style: normal; font-variant: normal; font-weight: normal; font-size: 24px; line-height: normal; font-family: Helvetica;" x="44" y="50" text-anchor="start" font="10px &quot;Arial&quot;" stroke="none" fill="#111111" font-family="Helvetica" font-size="24px"><tspan style="-webkit-tap-highlight-color: rgba(0, 0, 0, 0);" dy="8.4765625">You complete me.</tspan></text></svg>